<svg xmlns="http://www.w3.org/2000/svg" viewBox="0 0 100 100"><rect width="100" height="100" rx="22" fill="#FFFFFF"/><svg x="12" y="12" width="76" height="76" viewBox="-17.4071 -10.07 2496.81 1745.74" preserveAspectRatio="xMidYMid meet" ><svg x="0" y="0" width="100%" height="100%" viewBox="0 0 2462 1728"><path fill="#36210F" fill-rule="evenodd" d="M1500,1715L1500,1710L1506,1710C1510,1709 1513,1708 1515,1707L1518,1705L1518,1642C1518,1595 1518,1578 1517,1576C1515,1572 1512,1571 1505,1571L1500,1571L1500,1567C1500,1564 1500,1562 1501,1562C1502,1561 1509,1560 1517,1560C1525,1559 1533,1559 1535,1558L1538,1558L1538,1567C1538,1572 1538,1576 1539,1576C1540,1576 1540,1576 1540,1575C1540,1573 1550,1564 1557,1561C1563,1558 1564,1558 1573,1558C1582,1558 1583,1558 1591,1562C1601,1566 1607,1572 1612,1582C1618,1593 1620,1600 1620,1614C1620,1628 1618,1637 1612,1649C1607,1657 1598,1666 1590,1670C1583,1674 1570,1675 1562,1673C1556,1672 1548,1667 1544,1663C1539,1657 1539,1658 1539,1681C1539,1693 1539,1704 1540,1705C1541,1708 1542,1708 1551,1710L1556,1710L1556,1714L1556,1718L1528,1719L1500,1719L1500,1715ZM1441,1674C1436,1673 1427,1669 1422,1666C1420,1665 1419,1664 1418,1664C1418,1664 1416,1666 1414,1669C1410,1674 1410,1674 1406,1674L1402,1674L1402,1651L1402,1628L1407,1628C1411,1628 1411,1629 1413,1633C1415,1638 1419,1646 1422,1651C1426,1655 1434,1661 1438,1663C1443,1665 1458,1664 1462,1662C1471,1658 1476,1650 1475,1643C1473,1635 1462,1628 1448,1625C1444,1624 1439,1622 1436,1622C1432,1621 1429,1620 1428,1620C1424,1620 1418,1616 1413,1612C1407,1607 1404,1600 1404,1590C1404,1577 1410,1567 1422,1560C1427,1558 1428,1558 1437,1558C1447,1558 1455,1560 1463,1564L1466,1566L1470,1562C1473,1558 1474,1558 1477,1558L1480,1558L1480,1578L1480,1598L1477,1598C1474,1598 1474,1597 1472,1592C1466,1578 1455,1569 1443,1567C1433,1566 1421,1570 1418,1577C1416,1581 1417,1589 1420,1592C1422,1596 1428,1599 1434,1601C1436,1602 1439,1603 1440,1603C1442,1604 1449,1605 1456,1607C1473,1611 1476,1612 1481,1618C1487,1624 1488,1628 1488,1639C1488,1654 1482,1663 1468,1670C1460,1675 1451,1676 1441,1674ZM1972,1674C1970,1674 1966,1673 1965,1672C1960,1670 1955,1665 1953,1659C1951,1653 1951,1651 1951,1613C1951,1591 1951,1573 1950,1572C1950,1572 1946,1571 1940,1571L1932,1570L1932,1566L1932,1563L1937,1561C1946,1559 1952,1554 1956,1545C1959,1538 1963,1524 1964,1515C1964,1513 1965,1512 1968,1512C1974,1512 1974,1512 1974,1538L1974,1561L1990,1561C2001,1561 2006,1561 2007,1562C2008,1563 2008,1567 2007,1570C2007,1571 1999,1571 1990,1571L1972,1572L1972,1608C1972,1640 1972,1646 1974,1650C1976,1659 1983,1662 1991,1659C1999,1655 2002,1649 2005,1637L2006,1628L2010,1628L2014,1628L2014,1633C2014,1641 2012,1650 2008,1657C2004,1667 1996,1672 1985,1674C1978,1675 1978,1675 1972,1674ZM2405,1674C2399,1673 2394,1671 2388,1667C2386,1665 2384,1664 2383,1664C2383,1664 2380,1666 2378,1669C2375,1674 2374,1674 2371,1674L2368,1674L2367,1651L2367,1628L2371,1628C2376,1628 2376,1628 2377,1633C2380,1639 2385,1649 2389,1654C2392,1656 2396,1659 2399,1661C2405,1664 2406,1664 2414,1664C2425,1664 2429,1662 2435,1657C2438,1654 2438,1652 2439,1648C2439,1641 2439,1639 2435,1635C2429,1629 2422,1626 2394,1620C2383,1618 2378,1614 2374,1608C2368,1598 2366,1590 2370,1579C2373,1571 2378,1565 2386,1561C2392,1558 2393,1558 2403,1558C2409,1558 2414,1558 2414,1559C2415,1560 2416,1560 2417,1560C2418,1560 2421,1561 2425,1563L2431,1566L2435,1562C2438,1559 2439,1558 2442,1558L2445,1558L2445,1578L2444,1598L2441,1598C2438,1598 2438,1598 2436,1592C2429,1574 2414,1565 2398,1567C2388,1569 2382,1575 2382,1583C2382,1589 2385,1594 2391,1598C2396,1600 2399,1602 2422,1607C2439,1611 2443,1613 2448,1620C2462,1640 2448,1670 2422,1674C2416,1675 2413,1675 2405,1674ZM818,1673C809,1670 800,1662 798,1654C796,1649 797,1641 799,1635C802,1624 816,1614 833,1609C842,1606 857,1603 864,1602C871,1602 871,1601 871,1590C870,1582 870,1580 867,1577C862,1569 854,1566 840,1568C830,1568 825,1571 824,1575C824,1576 825,1579 826,1582C830,1589 830,1596 824,1599C823,1600 819,1600 816,1600C811,1600 810,1600 807,1597C804,1594 804,1594 804,1587C804,1580 805,1576 810,1570C814,1566 818,1564 828,1560C835,1558 837,1558 848,1558C859,1558 863,1558 868,1560C880,1564 886,1569 890,1579C891,1583 892,1589 892,1616C892,1635 892,1650 892,1652C893,1654 897,1658 899,1658C900,1658 903,1657 905,1656C911,1654 913,1654 914,1658C915,1661 911,1666 904,1670C900,1672 897,1672 892,1672C885,1672 884,1672 880,1669C877,1667 874,1664 873,1662L871,1657L866,1661C861,1666 851,1672 844,1673C838,1674 822,1674 818,1673ZM1834,1673C1830,1672 1822,1667 1818,1663C1814,1658 1812,1652 1812,1644C1813,1635 1815,1630 1822,1624C1830,1615 1843,1609 1868,1604C1874,1603 1880,1602 1881,1602C1885,1602 1886,1600 1886,1593C1886,1585 1883,1576 1880,1573C1875,1569 1870,1568 1859,1568C1848,1568 1845,1568 1841,1572C1838,1574 1839,1578 1842,1582C1846,1589 1844,1596 1839,1599C1838,1600 1834,1600 1831,1600C1826,1600 1825,1600 1822,1598C1818,1594 1817,1589 1819,1582C1821,1572 1827,1566 1843,1560C1850,1558 1852,1558 1864,1558C1885,1558 1897,1563 1904,1576L1906,1582L1907,1618L1908,1654L1910,1656C1913,1658 1915,1658 1921,1656C1925,1654 1925,1654 1927,1656C1929,1658 1929,1658 1928,1661C1926,1665 1924,1666 1918,1670C1915,1672 1913,1672 1907,1672C1900,1672 1899,1672 1895,1669C1892,1667 1889,1664 1888,1662C1887,1660 1886,1658 1886,1658C1885,1658 1883,1660 1880,1662C1874,1667 1865,1672 1859,1673C1854,1674 1839,1674 1834,1673ZM2138,1673C2131,1671 2120,1665 2115,1660C2109,1653 2102,1643 2100,1635C2098,1627 2098,1613 2099,1604C2102,1585 2117,1566 2132,1561C2135,1560 2137,1559 2138,1559C2139,1558 2144,1558 2151,1558C2164,1558 2170,1560 2180,1566C2190,1573 2200,1587 2203,1600C2204,1608 2204,1623 2202,1630C2198,1651 2182,1668 2165,1673C2159,1674 2144,1674 2138,1673ZM600,1665L600,1660L606,1660C613,1660 619,1658 622,1655L624,1653L625,1587C625,1536 625,1520 624,1517C622,1512 618,1510 608,1510L600,1510L600,1505L600,1500L638,1500L674,1500L675,1505L675,1510L666,1510C657,1510 657,1510 654,1513L651,1516L651,1546L652,1576L690,1576L730,1576L730,1546C730,1519 730,1516 728,1515C726,1512 722,1511 714,1510L706,1510L705,1506C705,1499 703,1499 744,1499C784,1499 782,1499 782,1506L782,1510L773,1510C762,1510 760,1511 758,1517C755,1522 755,1650 758,1654C760,1658 762,1659 773,1660L782,1660L782,1665L782,1670L744,1670L706,1670L706,1665L706,1660L714,1660C723,1659 726,1658 728,1655C730,1653 730,1648 730,1620L730,1588L690,1588L652,1588L651,1620C651,1652 651,1653 653,1655C655,1658 662,1660 670,1660L675,1660L675,1665L675,1670L638,1670L600,1670L600,1665ZM919,1665L919,1660L927,1660C940,1660 938,1664 938,1615C938,1567 940,1572 927,1570L919,1570L919,1566C919,1564 919,1562 920,1562C920,1561 927,1560 935,1560C942,1560 951,1559 954,1558L960,1558L960,1605C960,1653 960,1657 964,1659C965,1660 969,1660 972,1660L978,1660L978,1665L978,1670L948,1670L919,1670L919,1665ZM991,1669C991,1668 991,1666 991,1664L992,1660L999,1660C1003,1660 1007,1659 1008,1659C1009,1658 1010,1577 1008,1574C1007,1572 1001,1570 994,1570L988,1570L988,1566C988,1564 988,1562 989,1562C990,1561 1017,1559 1025,1559L1029,1558L1029,1571C1029,1578 1029,1584 1030,1585C1030,1586 1032,1584 1034,1580C1038,1571 1045,1564 1051,1560C1055,1558 1057,1558 1063,1558C1070,1558 1071,1558 1075,1560C1082,1564 1084,1568 1085,1576C1085,1581 1085,1582 1083,1586C1078,1594 1064,1594 1060,1585C1058,1581 1058,1575 1060,1572C1062,1568 1061,1568 1059,1568C1055,1568 1048,1572 1045,1576C1040,1583 1034,1600 1032,1614C1031,1617 1031,1629 1031,1639C1032,1660 1031,1659 1044,1660L1052,1660L1052,1665L1052,1670L1022,1670C997,1670 992,1670 991,1669ZM1162,1665L1162,1660L1170,1660C1179,1659 1183,1658 1185,1655C1187,1652 1188,1524 1186,1517C1184,1512 1181,1511 1170,1510L1162,1510L1162,1505L1162,1500L1199,1499C1226,1499 1237,1499 1238,1500C1238,1501 1239,1503 1239,1505L1238,1510L1230,1510C1221,1511 1217,1512 1215,1514C1213,1517 1213,1650 1215,1654C1217,1658 1220,1659 1230,1660L1238,1660L1238,1665L1238,1670L1200,1670L1162,1670L1162,1665ZM1255,1669C1255,1668 1255,1666 1255,1664L1256,1660L1263,1660C1274,1660 1273,1663 1274,1618C1274,1592 1274,1578 1273,1576C1272,1572 1272,1572 1267,1571C1264,1570 1260,1570 1258,1570C1254,1570 1254,1569 1253,1566C1253,1564 1254,1563 1254,1562C1255,1561 1262,1560 1269,1560C1276,1560 1284,1559 1288,1558L1294,1558L1294,1567C1294,1573 1294,1577 1295,1577C1295,1578 1298,1576 1301,1573C1307,1566 1311,1564 1320,1560C1328,1558 1338,1557 1342,1559C1343,1559 1346,1561 1349,1562C1356,1565 1362,1572 1365,1580C1367,1585 1368,1587 1368,1621C1369,1662 1368,1659 1379,1660L1386,1660L1386,1665L1386,1670L1358,1670L1330,1670L1330,1665L1330,1660L1336,1660C1342,1660 1343,1660 1345,1657C1347,1655 1347,1654 1347,1620L1346,1586L1343,1582C1339,1575 1332,1572 1323,1573C1310,1574 1302,1581 1298,1594C1296,1601 1296,1603 1296,1629C1296,1661 1295,1660 1306,1660L1312,1660L1312,1665L1312,1670L1284,1670C1261,1670 1256,1670 1255,1669ZM1634,1665L1634,1660L1642,1660C1647,1660 1650,1660 1652,1658L1654,1657L1654,1616C1654,1584 1654,1575 1653,1574C1651,1572 1645,1570 1638,1570L1634,1570L1634,1566C1634,1564 1634,1562 1635,1562C1635,1561 1642,1561 1650,1560C1657,1560 1666,1559 1669,1558L1675,1558L1675,1606L1676,1655L1678,1657C1680,1660 1681,1660 1687,1660L1694,1660L1694,1665L1694,1670L1664,1670L1634,1670L1634,1665ZM1706,1669C1706,1668 1706,1666 1706,1664L1706,1660L1714,1660C1726,1660 1725,1663 1725,1615C1724,1568 1726,1571 1712,1570L1704,1570L1703,1566C1703,1564 1703,1562 1704,1562C1704,1561 1711,1561 1718,1560C1726,1560 1735,1559 1738,1558L1744,1558L1744,1573C1744,1581 1744,1588 1745,1588C1745,1588 1747,1584 1750,1580C1754,1570 1760,1564 1767,1560C1774,1557 1785,1556 1790,1560C1798,1565 1800,1569 1800,1577C1800,1584 1798,1588 1792,1591C1785,1594 1778,1591 1775,1584C1772,1580 1773,1574 1775,1571C1778,1569 1777,1568 1774,1568C1768,1568 1760,1575 1756,1583C1753,1590 1748,1604 1747,1614C1746,1619 1746,1630 1746,1639C1747,1660 1746,1660 1759,1660L1768,1660L1768,1665L1768,1670L1738,1670C1712,1670 1707,1670 1706,1669ZM2025,1669C2025,1668 2025,1666 2025,1664L2026,1660L2034,1660C2046,1660 2045,1664 2045,1616C2045,1568 2046,1572 2034,1570C2025,1570 2025,1570 2025,1565L2026,1562L2033,1561C2055,1559 2065,1558 2066,1559C2067,1559 2067,1579 2067,1607L2067,1655L2070,1658C2072,1660 2073,1660 2078,1660C2082,1660 2085,1660 2085,1661C2086,1661 2086,1664 2085,1666L2085,1670L2055,1670C2031,1670 2026,1670 2025,1669ZM2221,1665L2221,1660L2227,1660C2235,1660 2237,1659 2238,1654C2239,1650 2239,1584 2238,1578C2238,1572 2235,1571 2225,1570L2218,1570L2218,1566L2218,1562L2226,1561C2231,1560 2240,1560 2246,1559C2252,1558 2257,1558 2258,1558C2259,1559 2259,1564 2259,1569L2259,1580L2263,1575C2270,1568 2276,1563 2285,1561C2295,1557 2301,1557 2310,1560C2318,1563 2325,1569 2330,1578L2332,1584L2333,1620C2334,1662 2333,1660 2344,1660L2352,1660L2352,1665L2352,1670L2323,1670L2294,1670L2294,1665L2294,1660L2301,1660C2307,1660 2308,1660 2310,1657C2312,1655 2312,1653 2312,1622L2312,1589L2309,1584C2307,1579 2306,1578 2301,1576C2294,1572 2287,1572 2279,1575C2272,1578 2268,1583 2264,1592L2260,1600L2260,1627C2260,1654 2260,1655 2262,1657C2264,1660 2265,1660 2271,1660L2278,1660L2278,1665L2278,1670L2249,1670L2221,1670L2221,1665ZM308,1664C297,1664 278,1662 274,1661C272,1660 264,1659 257,1657C243,1654 228,1649 221,1646C219,1645 217,1644 216,1644C215,1644 203,1639 198,1636C169,1621 155,1611 132,1589C123,1580 104,1556 101,1550C99,1546 98,1546 97,1551C96,1553 93,1561 90,1568C86,1575 82,1585 80,1590C78,1594 76,1600 75,1602C74,1605 72,1611 70,1616C68,1621 66,1626 65,1626C65,1627 62,1634 59,1641C56,1648 53,1655 53,1656C52,1657 14,1658 14,1656C13,1656 13,1622 12,1582C12,1542 12,1473 11,1430C10,1387 10,1316 9,1273L9,1194L31,1194L52,1194L54,1202C54,1206 56,1214 56,1220C57,1226 59,1236 60,1242C61,1247 62,1253 62,1254C63,1256 63,1259 64,1262C64,1264 66,1271 67,1278C70,1292 73,1303 77,1318C78,1323 80,1330 81,1334C83,1342 91,1368 94,1374C95,1377 96,1380 96,1380C96,1381 97,1383 98,1385C99,1388 100,1392 101,1394C103,1399 106,1406 109,1412C110,1415 112,1419 113,1422C117,1432 129,1454 136,1466C140,1472 143,1479 144,1481C148,1487 160,1503 168,1513C193,1544 222,1566 251,1578C265,1584 267,1585 279,1587C298,1592 304,1592 324,1592C350,1592 366,1589 388,1580C410,1570 419,1564 438,1546C445,1540 462,1518 464,1514C464,1513 465,1511 467,1510C470,1505 480,1484 484,1476C485,1473 487,1469 487,1468C488,1468 492,1453 495,1442C496,1439 498,1432 499,1426C500,1420 501,1416 501,1415C503,1413 504,1378 503,1356C502,1330 500,1318 495,1296C481,1240 449,1198 400,1169C395,1166 373,1156 365,1152C361,1150 356,1148 353,1147C350,1146 347,1144 346,1144C344,1143 338,1140 332,1138C327,1136 319,1132 315,1130C311,1129 301,1125 294,1122C287,1118 278,1115 276,1114C273,1112 267,1110 262,1108C250,1103 225,1092 222,1091C221,1090 215,1088 209,1085C203,1082 193,1078 188,1076C170,1068 156,1062 150,1060C144,1057 130,1048 119,1040C110,1032 87,1010 80,1000C73,992 61,974 57,967C56,964 53,960 52,957C50,954 48,949 46,945C44,941 42,936 41,933C35,920 27,891 23,871C18,843 16,824 15,796C14,747 20,693 30,656C36,638 39,628 40,625C41,623 44,617 46,612C66,560 104,510 143,484C148,480 150,479 159,474C170,468 193,460 206,458C230,454 244,453 266,456C295,459 307,462 335,472C342,474 363,485 372,491C380,496 396,507 398,509C398,509 401,512 404,514C411,520 432,541 438,548C440,551 443,554 443,554C443,554 446,557 448,561C451,564 454,567 454,566C455,566 457,562 460,554C463,547 474,521 476,516C478,513 480,507 482,503C484,499 487,490 490,483L496,470L516,470L536,470L536,482C537,495 538,529 540,621C541,656 543,707 544,734C546,786 547,842 548,872L548,888L527,889C512,889 507,889 506,888C506,887 504,880 503,872C502,865 500,853 499,847C491,811 491,810 486,795C485,791 483,784 481,778C479,772 477,766 476,764C476,763 473,756 471,750C469,744 466,736 465,734C464,732 462,726 460,722C456,711 439,676 433,665C432,662 429,657 427,654C421,643 407,622 398,611C389,599 366,576 359,571C357,569 354,567 354,567C350,563 336,554 322,547C298,535 276,530 248,530C215,530 190,538 165,557C149,569 136,586 123,611C117,623 108,646 106,655C99,683 98,704 99,736C100,761 101,768 104,782C108,796 110,802 117,817C131,846 150,868 178,887C186,892 189,894 200,900C209,906 232,915 239,918C242,918 248,920 253,922C258,924 264,926 267,927C273,929 285,934 288,935C290,935 296,938 303,940C310,942 316,945 316,945C317,945 323,947 329,950C335,952 342,954 344,954C348,957 355,959 361,961C364,962 370,964 375,966C380,968 386,970 388,971C391,972 395,974 398,974C401,976 424,987 428,990C429,990 432,992 434,994C484,1023 526,1070 553,1128C557,1138 559,1142 561,1148C562,1151 564,1158 566,1162C569,1171 573,1187 576,1200C577,1202 578,1206 578,1208C580,1216 584,1246 585,1258C588,1292 588,1316 587,1341C585,1383 582,1413 577,1431C576,1433 575,1441 573,1448C561,1500 535,1552 502,1588C482,1610 460,1627 434,1640C409,1652 388,1659 363,1662C353,1664 321,1665 308,1664ZM2163,1662C2171,1658 2176,1648 2178,1632C2180,1620 2180,1612 2179,1599C2176,1584 2172,1576 2164,1570C2160,1568 2158,1568 2151,1568C2144,1568 2142,1568 2138,1570C2129,1577 2125,1585 2123,1603C2121,1620 2123,1641 2128,1650C2131,1655 2136,1661 2139,1662C2144,1665 2158,1664 2163,1662ZM843,1660C853,1659 863,1652 868,1644C870,1640 870,1639 870,1626L870,1612L867,1612C860,1612 838,1618 832,1622C825,1627 820,1635 820,1643C820,1648 824,1656 827,1658C830,1660 836,1662 838,1662C839,1661 841,1661 843,1660ZM1576,1660C1590,1655 1595,1643 1596,1618C1596,1606 1596,1602 1594,1595C1590,1579 1583,1572 1571,1571C1558,1570 1547,1577 1543,1591C1539,1605 1538,1623 1542,1638C1544,1650 1550,1657 1559,1660C1566,1662 1569,1662 1576,1660ZM1858,1660C1872,1658 1881,1650 1884,1640C1886,1636 1886,1632 1886,1624L1886,1612L1882,1612C1878,1612 1870,1613 1860,1617C1849,1620 1845,1622 1841,1627C1836,1634 1835,1638 1835,1645C1836,1651 1836,1652 1840,1655C1842,1658 1845,1660 1847,1661C1849,1661 1851,1662 1851,1662C1851,1662 1854,1661 1858,1660ZM940,1524C934,1518 934,1509 940,1502C943,1500 944,1500 949,1500C954,1500 955,1500 958,1502C968,1512 962,1528 948,1528C945,1528 943,1527 940,1524ZM1661,1527C1654,1525 1649,1517 1650,1511C1653,1500 1666,1495 1673,1503C1678,1508 1679,1514 1676,1520C1674,1525 1666,1529 1661,1527ZM2048,1526C2039,1520 2040,1505 2050,1500C2054,1499 2057,1499 2062,1501C2072,1505 2072,1522 2061,1527C2058,1529 2052,1528 2048,1526ZM1349,1324C1348,1323 1348,1312 1348,1285L1348,1248L1373,1248C1386,1248 1399,1247 1400,1246C1404,1245 1411,1240 1414,1237C1415,1236 1417,1233 1418,1231C1422,1221 1422,1235 1422,896L1422,574L1382,574L1343,574L1342,572C1342,570 1342,554 1342,536L1342,502L1382,502L1422,502L1422,485C1422,461 1424,404 1425,386C1429,325 1431,299 1435,275C1436,271 1437,264 1438,258C1439,246 1444,220 1445,214C1446,212 1446,208 1447,206C1450,192 1456,167 1458,162C1459,159 1461,152 1463,146C1465,140 1467,134 1468,132C1469,129 1471,124 1473,119C1477,110 1490,83 1492,80C1493,79 1494,77 1495,75C1498,70 1510,55 1517,47C1535,29 1556,16 1576,12C1585,10 1599,8 1605,8C1611,8 1633,12 1640,14C1651,18 1666,26 1675,32C1692,45 1710,68 1721,92C1722,96 1724,100 1725,102C1729,110 1734,130 1737,145C1739,155 1739,200 1737,208C1732,234 1729,243 1720,260C1714,273 1708,281 1700,286C1696,289 1694,290 1688,290C1680,290 1675,289 1668,284C1659,279 1654,274 1648,262C1639,243 1634,221 1634,202C1634,194 1636,174 1638,165C1638,162 1640,156 1640,152C1642,141 1646,127 1648,121C1649,116 1648,112 1644,102C1641,97 1627,83 1621,80C1616,78 1615,78 1607,79C1597,80 1591,83 1583,88C1576,92 1566,103 1560,111C1555,118 1544,139 1540,149C1539,153 1537,157 1537,158C1536,160 1531,175 1529,184C1528,189 1526,195 1526,198C1521,218 1519,226 1516,254C1512,280 1512,290 1512,396L1512,502L1564,502L1616,502L1616,538L1616,574L1564,574L1512,574L1512,889C1512,1076 1512,1205 1513,1207C1513,1210 1514,1214 1515,1218C1518,1230 1525,1241 1534,1246C1537,1247 1540,1248 1570,1248L1603,1248L1603,1286L1602,1324L1476,1325C1370,1325 1350,1325 1349,1324ZM784,1144C758,1141 740,1135 719,1125C704,1117 693,1110 678,1098C657,1082 637,1055 626,1030C624,1024 622,1020 621,1018C620,1015 615,1000 614,994C613,991 612,986 612,984C608,967 608,924 612,910C612,906 614,901 614,898C616,890 622,873 626,863C644,824 678,790 720,769C730,764 734,762 748,756C766,750 794,746 821,746C864,746 899,753 930,768C951,779 974,798 987,817C993,825 1006,846 1006,848C1006,848 1007,850 1008,853C1013,864 1014,867 1018,878C1021,889 1022,891 1024,904C1026,913 1028,939 1027,946L1026,952L867,952L708,952L708,977C709,1004 709,1007 715,1023C717,1030 725,1045 729,1050C734,1057 752,1074 759,1080C768,1086 783,1094 791,1097C794,1098 798,1099 801,1100C810,1103 822,1104 840,1104C858,1104 869,1103 880,1100C883,1100 888,1098 892,1097C924,1089 965,1060 984,1030C988,1023 990,1021 992,1018C992,1017 993,1017 998,1019C1008,1023 1025,1031 1026,1032C1028,1034 1006,1065 992,1079C971,1100 942,1119 918,1129C913,1131 909,1132 908,1133C901,1136 879,1142 860,1144C848,1146 795,1146 784,1144ZM2170,1144C2155,1142 2129,1136 2126,1133C2125,1133 2123,1132 2120,1131C2116,1130 2102,1123 2094,1118C2077,1108 2056,1091 2044,1078C2036,1068 2024,1050 2019,1041C2018,1038 2016,1034 2015,1032C2009,1022 2003,1004 2000,988C1998,979 1996,953 1996,942C1998,905 2003,884 2018,856C2025,841 2029,835 2040,821C2050,810 2050,809 2062,800C2077,786 2086,780 2106,769C2125,759 2151,751 2173,748C2189,746 2220,746 2239,748C2255,749 2278,753 2282,755C2284,755 2286,756 2288,757C2304,762 2324,771 2334,778C2336,780 2340,783 2343,784C2349,788 2365,804 2371,812C2391,838 2406,871 2412,903C2414,914 2414,920 2414,934L2414,952L2255,952L2096,952L2096,978C2097,1003 2097,1005 2099,1014C2112,1059 2153,1094 2201,1102C2217,1105 2254,1104 2269,1100C2287,1096 2294,1093 2307,1086C2333,1073 2356,1053 2374,1026C2377,1021 2380,1017 2380,1017C2381,1017 2387,1020 2394,1023C2397,1024 2402,1026 2404,1028C2407,1029 2410,1030 2412,1030C2414,1031 2415,1034 2412,1037C2411,1038 2410,1040 2410,1040C2410,1042 2399,1057 2389,1068C2370,1091 2342,1112 2314,1125C2309,1128 2303,1130 2302,1130C2301,1131 2298,1132 2296,1132C2286,1137 2268,1142 2248,1144C2236,1146 2182,1146 2170,1144ZM1684,1129C1683,1127 1683,1092 1684,1092C1684,1091 1698,1091 1714,1091C1740,1090 1743,1090 1748,1088C1756,1086 1761,1082 1763,1077L1766,1072L1766,914C1766,763 1765,756 1764,751C1761,745 1756,738 1752,737C1746,735 1703,731 1692,731C1686,731 1684,731 1684,729C1683,727 1683,698 1684,696C1684,696 1691,695 1702,694C1712,693 1727,692 1734,692C1741,691 1756,691 1767,690C1778,690 1791,688 1796,688C1810,687 1853,684 1854,685C1855,685 1855,771 1855,876C1855,1066 1855,1067 1857,1072C1860,1079 1864,1084 1871,1087L1878,1090L1904,1091L1930,1092L1931,1109C1931,1119 1931,1128 1930,1129L1930,1131L1807,1131C1696,1131 1684,1131 1684,1129ZM1082,1128C1082,1127 1082,1113 1082,1097L1082,1068L1109,1067C1134,1066 1136,1066 1141,1064C1151,1059 1159,1047 1162,1030C1164,1020 1164,1012 1164,596C1164,310 1164,171 1163,167C1159,146 1156,141 1141,137C1130,133 1125,132 1102,132L1082,132L1082,105C1082,89 1082,76 1083,76C1083,75 1088,74 1093,74C1098,74 1108,73 1114,72C1120,72 1130,70 1136,70C1143,69 1156,68 1164,68C1173,67 1186,66 1192,65C1198,64 1207,64 1212,63C1226,62 1241,60 1247,60L1252,60L1253,545C1253,903 1254,1031 1255,1034C1255,1035 1256,1038 1257,1041C1260,1052 1267,1061 1276,1064C1281,1066 1284,1066 1305,1067L1329,1067L1329,1098L1328,1128L1206,1129C1107,1129 1083,1129 1082,1128ZM912,915C914,914 918,911 920,908L924,904L924,886C923,876 923,866 922,863C919,849 918,845 916,838C907,813 888,794 862,786C850,782 838,780 819,780C800,780 792,781 780,785C763,792 746,804 735,819C731,825 722,841 719,850C712,867 708,890 708,906L708,917L808,917C903,916 908,916 912,915ZM2296,915C2303,914 2308,909 2310,904C2312,900 2312,885 2310,870C2309,855 2308,854 2305,844C2297,818 2283,802 2263,791C2247,783 2232,780 2206,780C2180,780 2166,784 2147,796C2141,800 2128,812 2123,819C2118,825 2109,844 2105,855C2104,857 2103,859 2103,860C2102,863 2101,868 2098,879C2098,883 2097,893 2096,902L2096,917L2193,917C2279,917 2291,917 2296,915ZM1795,560C1792,559 1786,557 1781,555C1760,545 1749,525 1750,502C1752,479 1765,461 1789,452C1797,449 1813,448 1823,451C1836,455 1849,463 1856,474C1862,482 1863,486 1865,496C1866,505 1866,507 1865,515C1862,528 1856,539 1846,548C1840,552 1832,557 1825,559C1820,560 1802,561 1795,560Z"/></svg></svg></svg>